<svg width="94px" height="94px" viewBox="0 0 94 94" version="1.1" xmlns="http://www.w3.org/2000/svg" xmlns:xlink="http://www.w3.org/1999/xlink">
    <g id="Page-1" stroke="none" stroke-width="1" fill="none" fill-rule="evenodd">
        <g id="icon" fill-rule="nonzero">
            <circle id="background" fill="#4DC0B5" cx="47" cy="47" r="47"></circle>
            <g id="Group" transform="translate(15.000000, 35.000000)" fill="#FFFFFF">
                <path d="M3.68835961,3.88972182 L3.68835961,8.45340131 C3.72088724,9.16015929 3.3640553,9.8303714 2.75159343,10.2128627 C1.9166749,10.6766361 0.959583407,10.8909341 0,10.8289595 L0,14.1775593 C0.960703573,14.1180114 1.91742567,14.3427606 2.74404562,14.822179 C3.36990079,15.2423812 3.72696264,15.9477336 3.68752097,16.6859531 L3.68752097,21.0915337 C3.56336984,22.2729643 4.09644475,23.4291679 5.08638041,24.1255657 C6.01895337,24.7090647 7.65654702,25.0005425 9.99916136,24.9999992 L9.99916136,21.8363914 C9.29730963,21.8900717 8.59840949,21.7019646 8.02499161,21.3050487 C7.64656121,20.9177808 7.45327815,20.3936582 7.4924522,19.8609702 L7.4924522,15.5531827 C7.4924522,13.9021087 6.36810914,12.9127681 4.11942301,12.5851611 L4.11942301,12.415653 C6.31164039,12.1005418 7.43598345,11.0644779 7.4924522,9.30746133 L7.4924522,5.12191529 C7.45304212,4.58783602 7.64944236,4.06270345 8.03253942,3.6778367 C8.60682139,3.28789508 9.30101552,3.10041739 10,3.14649402 L10,0 C7.65738566,0 6.01979202,0.289847977 5.08721905,0.869543932 C4.09934565,1.56127267 3.56613884,2.71248157 3.68835961,3.88972182 Z" id="Path"></path>
                <path d="M20.3462712,8.39531947 C20.9076987,8.39628355 21.4659198,8.48264803 22.0029208,8.65162598 C22.611924,8.83823066 23.21138,9.05651781 23.7989875,9.30564947 L25,6.04597709 C23.5469998,5.33154593 21.9533244,4.97403188 20.3439346,5.00146782 C17.9792951,5.00146782 16.1650548,5.69539693 14.9012137,7.08325514 C13.6339975,8.46040044 13,10.4682686 13,13.0923973 C13,18.3599379 15.3282923,20.9950473 19.984877,20.9977255 C20.8408699,21.0152806 21.6959782,20.9311666 22.533329,20.7470433 C23.2440228,20.5654454 23.9201263,20.2620722 24.5334588,19.8495688 L24.5334588,16.2436014 C23.9145305,16.6772001 23.2396833,17.0190612 22.5286558,17.2591858 C21.8218974,17.4806129 21.0864182,17.5890001 20.3478289,17.5805733 C18.2261959,17.5805733 17.1653794,16.0721948 17.1653794,13.0554377 C17.1658986,9.94762094 18.2261959,8.39424818 20.3462712,8.39531947 Z" id="Path"></path>
                <path d="M37.3159729,12.7086063 C36.4709931,12.1472824 35.5588178,11.6888706 34.5997581,11.3435781 C33.6667884,11.012434 32.7648892,10.6032779 31.9041208,10.1206735 C31.5411878,9.91700608 31.3099479,9.54668751 31.2909147,9.13865616 C31.2909147,8.46684818 31.9266187,8.1314795 33.1980267,8.13255011 C33.9132498,8.13327825 34.6242352,8.23967213 35.3067971,8.4481125 C35.9957279,8.66169926 36.7315752,8.92988715 37.5250391,9.26391757 L38.8263529,6.2287373 C37.087343,5.43186544 35.1901153,5.01740666 33.2688129,5.01466519 C31.6440784,4.91693828 30.0278818,5.30942 28.6397245,6.13880603 C27.5671094,6.85079034 26.9481627,8.05323445 27.0034109,9.31771574 C26.9837028,10.0110059 27.1182093,10.7002307 27.3976736,11.3379574 C27.6840736,11.9150755 28.1114408,12.4147074 28.6421938,12.7929168 C29.4740514,13.3567178 30.3728275,13.8201854 31.3189,14.1732012 C32.1666882,14.5206143 32.8460163,14.8262735 33.3568841,15.0901789 C33.7473795,15.2718515 34.1080006,15.50918 34.4269081,15.7943729 C34.6400272,16.0086637 34.7534294,16.2990253 34.7405074,16.5973306 C34.7405074,17.4821901 33.9566463,17.9235492 32.388924,17.9214079 C31.4949775,17.9026135 30.6066733,17.7780473 29.7434954,17.5504415 C28.8105094,17.3267948 27.9011125,17.0181749 27.0272807,16.628646 L27.0272807,20.1038471 C27.761155,20.4037251 28.5253605,20.6273777 29.3072549,20.771105 C30.2778457,20.9363817 31.2621912,21.0124607 32.2473515,20.998342 C34.4894634,20.998342 36.1740652,20.5842835 37.3011572,19.7561664 C38.4431051,18.8989474 39.0763876,17.5461252 38.9926182,16.1428565 C39.0096585,15.4646705 38.8689531,14.7915331 38.5810705,14.1740042 C38.2860102,13.5918687 37.848727,13.0894527 37.3077419,12.7110152 L37.3159729,12.7086063 Z" id="Path"></path>
                <path d="M51.3123372,12.7085284 C50.4679574,12.1460735 49.5555413,11.6875837 48.5958419,11.3434873 C47.6633103,11.0129476 46.7620852,10.6037607 45.9023956,10.120571 C45.5384179,9.91791086 45.30678,9.5469897 45.2891262,9.13854434 C45.2891262,8.46672998 45.9248959,8.1313581 47.1964352,8.13242872 C47.91091,8.13332595 48.621129,8.23971975 49.3029539,8.44799412 C50.0560323,8.68338457 50.7964629,8.95566793 51.5214251,9.26380694 L52.8253428,6.2285978 C51.086864,5.43218691 49.1903508,5.01773892 47.2696983,5.01451415 C45.6432881,4.91735409 44.0255228,5.30976128 42.6351926,6.13866568 C41.5637261,6.85125524 40.9465012,8.05387149 41.0036491,9.31760562 C40.9811419,10.010643 41.1140241,10.7001176 41.3930134,11.3378665 C41.6777704,11.9153338 42.1044941,12.4151584 42.6351926,12.7928398 C43.4684028,13.3560268 44.3680094,13.8194516 45.3146448,14.1731373 C46.1608743,14.5205536 46.8394493,14.8262158 47.35037,15.0901238 C47.7409057,15.271798 48.101564,15.5091288 48.4205045,15.7943244 C48.6338974,16.0084606 48.7473543,16.298935 48.7341362,16.5972898 C48.7341362,17.4821576 47.9518404,17.9235209 46.3872489,17.9213797 C45.4915701,17.9027765 44.601516,17.7782091 43.736608,17.5504097 C42.8063133,17.3272198 41.8997843,17.0185731 41.0291676,16.6286054 L41.0291676,20.1038396 C41.761943,20.4038258 42.5251477,20.6274876 43.3060846,20.7711038 C44.2767764,20.9363774 45.2612231,21.0124571 46.246485,20.998343 C48.4888284,20.998343 50.1736043,20.5842805 51.3008127,19.7561556 C52.4436933,18.8995605 53.0772497,17.5462801 52.9924484,16.1428114 C53.0086366,15.4646928 52.8679552,14.7917331 52.5808582,14.1739403 C52.2837951,13.5921096 51.8455043,13.0898819 51.3041054,12.7109373 L51.3123372,12.7085284 Z" id="Path"></path>
                <path d="M62.1971477,10.2485059 C61.6023659,9.85369059 61.26574,9.18382258 61.3112416,8.48559913 L61.3112416,3.89422087 C61.3657069,3.07331329 61.1636575,2.25556369 60.7315436,1.54802332 C60.2373347,0.950134583 59.5467063,0.535151335 58.7751678,0.372480592 C57.538131,0.0938369402 56.2693621,-0.0293687741 55,0.00588722536 L55,3.15125831 C55.6987076,3.10413916 56.3934944,3.28600531 56.9731544,3.66774764 C57.3554111,4.05823648 57.5487731,4.58807142 57.5050336,5.12515993 L57.5050336,9.30921223 C57.5643177,11.0623432 58.6828859,12.0980373 60.8607383,12.4162947 L60.8607383,12.5857423 C59.9426514,12.666507 59.0699272,13.0101457 58.3531879,13.5731004 C57.7891871,14.0706834 57.4803064,14.7847629 57.5092282,15.5241918 L57.5092282,19.8565107 C57.5574226,20.4006029 57.3596296,20.9381607 56.9672819,21.3294014 C56.3917313,21.7107911 55.6985728,21.8882714 55.0041946,21.8320416 L55.0041946,24.9937058 C56.27112,25.0305323 57.53754,24.9056375 58.7709732,24.6222245 C59.541542,24.4629319 60.2315981,24.049595 60.7239933,23.4523843 C61.1665079,22.7427615 61.3716685,21.9174036 61.3112416,21.0898937 L61.3112416,16.6907733 C61.2385136,15.9275655 61.6003971,15.1866318 62.2550336,14.758419 C63.0994695,14.3291361 64.0486055,14.1319567 65,14.1881626 L65,10.8407578 C64.0263611,10.9111636 63.0526252,10.70541 62.1971477,10.2485059 L62.1971477,10.2485059 Z" id="Path"></path>
            </g>
        </g>
    </g>
</svg>